<svg width="150" height="150" version="1.1" viewBox="0 0 150 150" xmlns="http://www.w3.org/2000/svg">
 <g transform="translate(-5.5118 -7.1436)">
  <path d="m23.687 140.14c-0.18495-0.48196-0.25333-5.6642-0.15196-11.516l0.18431-10.64 5-0.41382v7.7507c0 4.2629 0.31055 8.331 0.69012 9.0402 0.62591 1.1695 1.467 1.2895 9.0402 1.2895h8.3501l-0.20691 2.5-0.20691 2.5-11.181 0.18285c-8.7537 0.14316-11.254-7e-3 -11.518-0.69342zm91.298-0.0914c-0.20424-0.53223-0.27262-1.6645-0.15195-2.5162 0.2141-1.5112 0.4146-1.553 8.321-1.7352 5.5798-0.12856 8.3225-0.45275 8.8111-1.0415 0.39021-0.47017 0.79447-4.4362 0.89837-8.8133l0.1889-7.9585h4.6667v22.667l-11.181 0.18285c-9.2775 0.15172-11.245 0.0181-11.553-0.78485zm-45.967-7.3144c-7.1531-2.3179-11.498-4.9526-16.72-10.14-10.408-10.338-13.668-24.076-9.7938-41.277 3.693-16.397 18.759-37.031 35.518-48.645l2.6974-1.8693 2.7767 1.924c8.5552 5.928 19.331 17.111 25.868 26.845 9.0568 13.486 13.156 30.544 10.432 43.413-3.1098 14.693-14.359 26.431-29.077 30.343-5.7492 1.528-16.023 1.2474-21.701-0.59274zm8.9137-15.68c-0.27738-12.202-0.6928-13.726-4.6508-17.056-2.5815-2.1722-4.3764-2.9422-9.2282-3.9591-3.4933-0.73213-3.6769-0.87435-3.8828-3.0084-0.11887-1.232 0.12223-2.449 0.53577-2.7046 1.3346-0.82484 7.542 0.57117 11.749 2.6423 5.721 2.8164 5.8513 2.7687 5.4204-1.9844-0.54149-5.9717-2.8088-9.3891-7.9256-11.946-2.2604-1.1296-4.9046-2.0537-5.876-2.0537-2.6869 0-4.1726-1.4052-3.9115-3.6995 0.2175-1.9112 0.32241-1.9646 3.6931-1.8777 2.4358 0.0628 4.8188 0.74667 8 2.2959 2.4919 1.2136 4.8308 2.2233 5.1974 2.2439 0.36666 0.0206 0.81666-1.6126 1-3.6292l0.33333-3.6667h4.6667l0.18917 7.9892c0.10404 4.394 0.42923 8.2292 0.72263 8.5226 0.29339 0.29339 2.2168-0.35204 4.2742-1.4343 3.9262-2.0653 10.555-3.7808 12.188-3.1541 1.1985 0.45991 1.3057 5.0183 0.12598 5.3595-0.45832 0.1326-2.5652 0.59624-4.682 1.0303-4.2897 0.8797-8.7098 3.8214-10.597 7.0525-1.3695 2.345-2.2287 8.8918-1.3386 10.201 0.49373 0.72617 1.111 0.57902 3.198-0.7624 3.4125-2.1934 8.99-3.9447 11.725-3.6818 2.0234 0.19453 2.1945 0.39293 2.1945 2.5443 0 2.3255-0.0149 2.3369-4.4422 3.4099-9.4299 2.2854-12.549 6.1964-13.083 16.406l-0.3333 6.372 3.2624-0.34206c7.83-0.82098 16.74-6.2021 21.92-13.238 6.0833-8.2636 7.9879-20.559 5.0086-32.335-1.7906-7.0771-6.8994-17.42-11.831-23.953-4.9068-6.4999-19.013-20.32-20.741-20.32-1.8358 0-15.432 13.238-20.443 19.905-5.1617 6.8668-8.9288 13.883-11.341 21.123-2.3917 7.1773-3.0069 18.22-1.3373 24.003 2.7296 9.4544 9.3884 17.761 17.399 21.705 4.5627 2.2462 10.683 3.9531 12.194 3.4008 0.7186-0.26265 0.84824-2.5466 0.64701-11.399zm-65.708-11.833c-6.2279-3.0702-6.2969-12.571-0.11428-15.736 4.1053-2.1017 8.3243-1.1092 11.274 2.6523 1.3027 1.6613 1.9609 1.8801 6.5589 2.18l5.1109 0.33333v5.3333l-5.1109 0.33334c-4.6465 0.30304-5.2472 0.50724-6.6119 2.2474-1.6222 2.0686-4.9847 3.7617-7.4224 3.7374-0.83678-8e-3 -2.4946-0.49493-3.6839-1.0813zm129.44 0.14883c-1.1311-0.49248-2.7312-1.7557-3.5558-2.8072-1.3626-1.7375-1.9652-1.9422-6.6101-2.2452l-5.1109-0.33334v-5.3333l5.1109-0.33333c4.5979-0.29988 5.2562-0.51868 6.5589-2.18 2.9699-3.7876 7.2422-4.7723 11.289-2.6018 6.2288 3.3406 6.1717 12.293-0.099 15.512-2.8859 1.4816-4.7394 1.5604-7.5831 0.32228zm5.5899-5.8524c1.87-1.87 0.46116-5.2-2.2-5.2-1.787 0-3 1.213-3 3 0 1.787 1.213 3 3 3 0.77 0 1.76-0.36 2.2-0.8zm-129.67-23.173c-4.5894-2.7984-5.8249-9.3258-2.5106-13.265 3.6351-4.3201 9.4292-4.3599 13.57-0.09326 2.3442 2.4156 2.8138 2.6088 6.7966 2.7962l4.2784 0.20138v5.3333l-4.3333 0.17639c-3.8206 0.15552-4.5305 0.40149-6 2.0788-3.5116 4.0084-8.0317 5.07-11.801 2.7718zm6.5818-5.797c1.5623-1.4138 1.54-2.3996-0.0873-3.8724-2.6783-2.4238-6.4067 0.44129-4.707 3.6172 0.87871 1.6419 3.1296 1.7617 4.7943 0.25519zm111.44 5.9087c-1.1623-0.62629-2.7485-1.9503-3.5249-2.9422-1.2473-1.5934-1.9328-1.8263-5.8868-2l-4.4751-0.19656v-5.3333l4.3304-0.20273c4.0497-0.18959 4.4922-0.37121 6.8281-2.8021 1.5546-1.6179 3.3644-2.762 4.7928-3.03 7.0935-1.3308 13.017 5.9096 9.9508 12.164-2.3992 4.8943-7.5425 6.7534-12.015 4.3432zm-111.91-28.956c-0.19051-0.49647-0.26345-5.6906-0.16208-11.543l0.18431-10.64h22.667l0.20691 2.5 0.20691 2.5h-7.9128c-5.2918 0-8.2818 0.27603-9.0266 0.83333-0.91282 0.68294-1.1464 2.2771-1.2941 8.8333l-0.18027 8-2.1712 0.20925c-1.3704 0.13207-2.299-0.12371-2.5176-0.69343zm109.5 0.40467c-0.26182-0.26183-0.47604-3.9893-0.47604-8.2833 0-5.6301-0.24397-8.0097-0.87485-8.5333-0.49118-0.40765-4.365-0.8089-8.8333-0.91496l-7.9585-0.18891v-4.6667h22.667v22.667l-2.024 0.19826c-1.1132 0.10905-2.2382-0.01593-2.5-0.27777z" fill="#47abff" stroke-width=".66667"/>
 </g>
</svg>
